<svg height="512pt" viewBox="0 0 512 512.001" width="512pt" xmlns="http://www.w3.org/2000/svg"><path d="m451.121094 211.898438c-.042969 0-.089844 0-.132813 0-33.027343.074218-64.074219 12.976562-87.429687 36.332031l-8.039063 8.039062c-1.078125-.902343-2.175781-1.773437-3.308593-2.59375 5.519531-7.46875 8.789062-16.695312 8.789062-26.675781 0-11.515625-4.351562-22.03125-11.496094-30 7.144532-7.96875 11.496094-18.484375 11.496094-30 0-5.257812-.914062-10.304688-2.578125-15h17.578125c41.355469 0 75-33.644531 75-75 0-8.285156-6.714844-15-15-15h-66.078125l19.582031-40.46875c2.25-4.644531 1.949219-10.125-.796875-14.5-2.742187-4.375-7.542969-7.03125-12.707031-7.03125h-120c-5.164062 0-9.964844 2.65625-12.707031 7.03125-2.742188 4.375-3.042969 9.855469-.792969 14.5l19.578125 40.46875h-66.078125c-8.285156 0-15 6.714844-15 15 0 41.355469 33.644531 74.988281 75 74.988281h17.582031c-1.667969 4.695313-2.582031 9.753907-2.582031 15.011719 0 11.515625 4.355469 22.03125 11.496094 30-7.140625 7.96875-11.496094 18.484375-11.496094 30 0 9.980469 3.269531 19.207031 8.789062 26.675781-3.464843 2.511719-6.675781 5.410157-9.601562 8.644531l-37.480469-18.738281c-7.40625-3.703125-16.417969-.699219-20.121093 6.707031-3.707032 7.410157-.703126 16.421876 6.707031 20.125l36.707031 18.355469c-1.089844 4.328125-1.710938 8.769531-1.835938 13.253907-59.535156-.011719-164.160156-.019532-164.164062-.019532-49.738281 0-90 40.25-90 89.996094 0 49.628906 40.375 90 90 90h2.582031c6.191407 17.457031 22.863281 30 42.417969 30s36.226562-12.542969 42.421875-30h18.578125c8.285156 0 15-6.714844 15-15s-6.714844-15-15-15h-18.578125c-6.195313-17.457031-22.867187-30-42.421875-30s-36.226562 12.542969-42.417969 30h-2.582031c-33.085938 0-60-26.914062-60-60 0-33.15625 26.835938-60.105469 60-60.105469 0 0 108.09375.011719 169.296875.023438l7.644531 30.683593c-19.0625 1.324219-34.378906 5.078126-44.75 15.390626-17.46875 17.382812-17.035156 56.304687 19.378906 82.226562l-26.175781 26.175781c-4.289062 4.289063-5.574219 10.742188-3.253906 16.347657 2.324219 5.605468 7.792969 9.257812 13.859375 9.257812h180c6.066406 0 11.535156-3.652344 13.859375-9.257812 2.320313-5.605469 1.039063-12.058594-3.253906-16.347657l-26.175781-26.175781c36.421874-25.925781 36.847656-64.847656 19.378906-82.226562-10.367188-10.3125-25.6875-14.066407-44.75-15.390626l7.636718-30.648437c30.28125.015625 78.289063.046875 78.304688.046875 33.207031 0 61-26.753906 61-60.222656 0-33.28125-28.019531-59.878906-60.878906-59.878906zm-316.121094 240.101562c8.273438 0 15 6.730469 15 15s-6.726562 15-15 15c-8.269531 0-15-6.730469-15-15s6.730469-15 15-15zm192.824219-90.039062c-7.738281.039062-27.996094-.023438-30.128907-.03125l-12.59375-50.359376c-2.394531-9.582031-.28125-19.539062 5.796876-27.324218 6.078124-7.78125 15.226562-12.246094 25.101562-12.246094s19.023438 4.464844 25.101562 12.246094c6.078126 7.785156 8.191407 17.746094 5.796876 27.324218l-12.589844 50.359376c-2.136719.007812-4.296875.019531-6.484375.03125zm-47.902344-331.960938h72.15625l-15.484375 32h-41.1875zm-66.351563 61.988281h204.859376c-6.191407 17.460938-22.871094 30.011719-42.429688 30.011719h-120c-19.554688 0-36.238281-12.550781-42.429688-30.011719zm117.429688 75.011719c0 8.269531-6.726562 15-15 15-8.269531 0-15-6.730469-15-15s6.730469-15 15-15c8.273438 0 15 6.730469 15 15zm-30 60c0-8.269531 6.730469-15 15-15 8.273438 0 15 6.730469 15 15s-6.726562 15-15 15c-8.269531 0-15-6.730469-15-15zm58.828125 216.226562c-4.515625 2.007813-7.746094 6.113282-8.648437 10.96875-.898438 4.859376.648437 9.847657 4.144531 13.339844l14.464843 14.464844h-107.574218l14.464844-14.464844c3.492187-3.492187 5.042968-8.480468 4.140624-13.339844-.898437-4.855468-4.132812-8.960937-8.644531-10.96875-32.539062-14.492187-34.496093-38.324218-28.824219-43.964843 8.097657-8.054688 39.597657-7.414063 60.671876-7.300781 7.839843.039062 16.117187.039062 23.960937 0 24.339844-.128907 52.894531-.433594 60.667969 7.300781 5.445312 5.421875 4.273437 29.222656-28.824219 43.964843zm91.171875-141.121093c-.007812 0-44.960938-.03125-73.164062-.042969-.195313-7.304688-1.683594-14.496094-4.417969-21.265625l11.355469-11.355469c17.703124-17.707031 41.242187-27.488281 66.28125-27.542968h.066406c16.363281 0 30.878906 13.253906 30.878906 29.878906 0 16.675781-14.171875 30.328125-31 30.328125zm0 0"/></svg>