<svg height="512pt" viewBox="-31 0 512 512" width="512pt" xmlns="http://www.w3.org/2000/svg"><path d="m450 76c0-19.992188-12.890625-37.054688-30-43.335938v-32.664062h-30v32.664062c-17.082031 6.269532-30 23.308594-30 43.335938v31c0 11.515625 4.355469 22.03125 11.496094 30-7.140625 7.96875-11.496094 18.484375-11.496094 30s4.355469 22.03125 11.496094 30c-7.140625 7.96875-11.496094 18.484375-11.496094 30v60c0 15.585938-2.632812 30.75-7.699219 45.0625-18.554687-52.410156-68.609375-90.0625-127.300781-90.0625-58.667969 0-108.703125 37.621094-127.277344 90-4.996094-14.082031-7.722656-29.226562-7.722656-45v-60c0-11.515625-4.355469-22.03125-11.496094-30 7.144532-7.96875 11.496094-18.484375 11.496094-30s-4.355469-22.03125-11.496094-30c7.144532-7.96875 11.496094-18.484375 11.496094-30v-31c0-19.992188-12.890625-37.054688-30-43.335938v-32.664062h-30v32.664062c-17.082031 6.269532-30 23.308594-30 43.335938v31c0 11.515625 4.355469 22.03125 11.496094 30-7.140625 7.96875-11.496094 18.484375-11.496094 30s4.355469 22.03125 11.496094 30c-7.140625 7.96875-11.496094 18.484375-11.496094 30v60c0 124.351562 100.632812 225 225 225 124.351562 0 225-100.632812 225-225v-60c0-11.515625-4.355469-22.03125-11.496094-30 7.144532-7.96875 11.496094-18.484375 11.496094-30s-4.355469-22.03125-11.496094-30c7.144532-7.96875 11.496094-18.484375 11.496094-30zm-60 0c0-8.523438 7.011719-16 15-16s15 7.476562 15 16v31c0 8.269531-6.730469 15-15 15s-15-6.730469-15-15zm30 91c0 8.269531-6.730469 15-15 15s-15-6.730469-15-15 6.730469-15 15-15 15 6.730469 15 15zm-390 0c0-8.269531 6.730469-15 15-15s15 6.730469 15 15-6.730469 15-15 15-15-6.730469-15-15zm0-91c0-8.523438 7.011719-16 15-16s15 7.476562 15 16v31c0 8.269531-6.730469 15-15 15s-15-6.730469-15-15zm0 211v-60c0-8.269531 6.730469-15 15-15s15 6.730469 15 15v60c0 90.980469 74.019531 165 165 165 41.355469 0 75-33.644531 75-75s-33.644531-75-75-75-75 33.644531-75 75c0 8.746094 1.519531 17.136719 4.28125 24.949219-13.011719-8.035157-24.558594-18.214844-34.15625-30.046875 2.667969-55.539063 48.6875-99.902344 104.875-99.902344 57.898438 0 105 47.101562 105 105 0 56.992188-45.640625 103.523438-102.292969 104.964844-.902343.011718-1.800781.035156-2.707031.035156-107.523438 0-195-87.476562-195-195zm150 90c0-24.8125 20.1875-45 45-45s45 20.1875 45 45-20.1875 45-45 45-45-20.1875-45-45zm240-90c0 63.039062-30.078125 119.179688-76.625 154.847656 9.832031-17.878906 15.726562-38.210937 16.523438-59.824218 19.703124-27.894532 30.101562-60.636719 30.101562-95.023438v-60c0-8.269531 6.730469-15 15-15s15 6.730469 15 15zm0 0"/></svg>