<svg id="Layer" enable-background="new 0 0 64 64" height="512" viewBox="0 0 64 64" width="512" xmlns="http://www.w3.org/2000/svg"><path d="m55 8h-8c-.553 0-1 .448-1 1s.447 1 1 1h3v4.807l-1.929 4.822c-.047.118-.071.244-.071.371v1c0 1.302.839 2.401 2 2.815v26.185c0 2.206-1.794 4-4 4s-4-1.794-4-4v-14c0-3.309-2.691-6-6-6h-8v-6c3.309 0 6-2.691 6-6v-3c0-.552-.447-1-1-1h-7v-5c0-.552-.447-1-1-1h-6c-.553 0-1 .448-1 1v5h-7c-.553 0-1 .448-1 1v3c0 3.309 2.691 6 6 6v5c0 .552.447 1 1 1s1-.448 1-1v-5h8v16h-8v-5c0-.552-.447-1-1-1s-1 .448-1 1v5h-4c-.381 0-.729.216-.897.558l-3 6.083c-.004.008-.002.017-.006.024-.059.128-.097.268-.097.418v7.917c0 .552.447 1 1 1h26c.553 0 1-.448 1-1v-8c0-.155-.036-.309-.106-.447l-3-6c-.169-.339-.515-.553-.894-.553h-4v-8h8c2.206 0 4 1.794 4 4v14c0 3.309 2.691 6 6 6s6-2.691 6-6v-26.184c1.161-.415 2-1.514 2-2.816v-1c0-.127-.024-.253-.071-.372l-1.929-4.821v-4.807h3c.553 0 1-.448 1-1s-.447-1-1-1zm-35 2h4v4h-4zm-3 12h-1c-2.206 0-4-1.794-4-4v-2h7 6 7v2c0 2.206-1.794 4-4 4h-1zm-7 32v-5.917h24v5.917zm23.424-7.917h-22.816l2.014-4.083h4.378 10 4.382zm18.576-25.083c0 .551-.448 1-1 1s-1-.449-1-1v-.808l1-2.5 1 2.5z"/><circle cx="17" cy="32" r="1"/></svg>